<?xml version="1.0" standalone="no"?><!DOCTYPE svg PUBLIC "-//W3C//DTD SVG 1.1//EN" "http://www.w3.org/Graphics/SVG/1.1/DTD/svg11.dtd"><svg t="1680862792685" class="icon" viewBox="0 0 1024 1024" version="1.1" xmlns="http://www.w3.org/2000/svg" p-id="2503" width="24" height="24" xmlns:xlink="http://www.w3.org/1999/xlink"><path d="M866.461538 226.461538h-137.846153V157.538462a157.538462 157.538462 0 0 0-157.538462-157.538462h-118.153846a157.538462 157.538462 0 0 0-157.538462 157.538462v185.462153H157.538462a157.538462 157.538462 0 0 0-157.538462 157.538462V905.846154a118.153846 118.153846 0 0 0 118.153846 118.153846h787.692308a118.153846 118.153846 0 0 0 118.153846-118.153846V384a157.538462 157.538462 0 0 0-157.538462-157.538462zM78.769231 905.846154V500.539077a78.769231 78.769231 0 0 1 78.769231-78.769231h137.846153V945.230769H118.153846a39.384615 39.384615 0 0 1-39.384615-39.384615zM374.153846 382.385231V157.538462a78.769231 78.769231 0 0 1 78.769231-78.769231h118.153846a78.769231 78.769231 0 0 1 78.769231 78.769231v787.692307h-275.692308zM945.230769 905.846154a39.384615 39.384615 0 0 1-39.384615 39.384615h-177.230769V305.230769H866.461538a78.769231 78.769231 0 0 1 78.769231 78.769231z" fill="#f4ea2a" p-id="2504"></path><path d="M568.595692 222.798769a39.384615 39.384615 0 0 0-39.384615-39.384615h-49.033846a39.384615 39.384615 0 0 0 0 78.769231h9.649231v80.30523a39.384615 39.384615 0 1 0 78.76923 0v-111.064615a43.323077 43.323077 0 0 0-0.866461-4.371692 40.448 40.448 0 0 0 0.866461-4.253539z" fill="#f4ea2a" p-id="2505"></path></svg>