<?xml version="1.0" standalone="no"?><!DOCTYPE svg PUBLIC "-//W3C//DTD SVG 1.1//EN" "http://www.w3.org/Graphics/SVG/1.1/DTD/svg11.dtd"><svg t="1680792160757" class="icon" viewBox="0 0 1024 1024" version="1.1" xmlns="http://www.w3.org/2000/svg" p-id="5437" width="24" height="24" xmlns:xlink="http://www.w3.org/1999/xlink"><path d="M731.158672 339.129151l41.564575 55.734318v3.778597s3.778598 0 9.446495 2.833949c4.723247 1.889299 10.391144 3.778598 17.948339 3.778598h1.889299c1.889299 0 42.509225 4.723247 77.461255 14.169741h0.944649c7.557196 2.833948 16.059041 4.723247 22.671587 7.557196 8.501845 2.833948 15.114391 6.612546 20.782288 10.391144 9.446494 5.667897 16.059041 12.280443 19.837638 19.837638s4.723247 16.059041 2.833948 24.560886c0 4.723247-1.889299 9.446494-4.723247 13.225092-1.889299 3.778598-4.723247 9.446494-11.335793 17.00369s-17.00369 16.059041-31.173432 23.616236h-0.944649c-15.114391 7.557196-35.896679 15.114391-64.236163 19.837639-22.671587 3.778598-50.066421 5.667897-84.0738 5.667896h-0.94465s-27.394834-1.889299-55.734317-19.837638c-14.169742-8.501845-29.284133-21.726937-41.564576-39.675277l-1.889299-1.889299-0.944649-1.889299c-3.778598-7.557196-8.501845-15.114391-13.225093-23.616236l-17.00369 21.726937c-6.612546 7.557196-10.391144 14.169742-12.280442 19.837639-1.889299 6.612546-1.889299 11.335793-0.94465 15.114391 0.944649 2.833948 1.889299 4.723247 2.833949 6.612546s1.889299 2.833948 1.889298 2.833948c19.837638 10.391144 69.904059 46.287823 88.797048 60.457565 26.450185 18.892989 38.730627 38.730627 43.453875 55.734317 5.667897 16.059041 3.778598 29.284133 2.833948 35.896679v2.833949l-0.944649 1.889299c-1.889299 6.612546-6.612546 17.948339-12.280443 31.173431-6.612546 14.169742-14.169742 31.173432-21.726937 48.177122-7.557196 16.059041-15.114391 32.118081-22.671587 47.232472-10.391144 22.671587-19.837638 40.619926-24.560886 50.066421l-0.944649 0.944649c-11.335793 19.837638-22.671587 36.841328-34.00738 50.066421-13.225092 15.114391-26.450185 26.450185-37.785978 34.00738-8.501845 5.667897-16.059041 10.391144-22.671587 13.225092-8.501845 3.778598-16.059041 4.723247-20.782287 5.667897-14.169742 3.778598-25.505535 1.889299-34.95203-1.889299-11.335793-5.667897-18.892989-16.059041-22.671587-28.339483v-0.94465c-6.612546-23.616236 0-55.734317 1.889299-63.291513v-0.944649c2.833948-18.892989 17.948339-63.291513 30.228782-96.354244 3.778598-13.225092 8.501845-24.560886 10.391144-32.118081 2.833948-11.335793 4.723247-20.782288 5.667897-28.339483 0.944649-8.501845 0.944649-16.059041 0-21.726937-2.833948-15.114391-6.612546-16.059041-6.612546-16.059041h-0.94465c-3.778598-2.833948-8.501845-4.723247-13.225092-6.612546s-9.446494-4.723247-15.114391-8.501845c-3.778598-1.889299-8.501845-3.778598-12.280443-5.667897l-1.889299-1.889299c-7.557196 12.280443-14.169742 23.616236-20.782287 34.95203-7.557196 11.335793-15.114391 22.671587-22.671587 33.06273v0.94465l-1.889299 2.833948c-18.892989 24.560886-41.564576 36.841328-60.457565 42.509225s-34.95203 5.667897-36.841328 5.667897h-1.889299c-21.726937-1.889299-42.509225-2.833948-62.346863-2.833948l-9.446495-0.94465c-45.343173-2.833948-89.741697-5.667897-131.306273-8.501845h-0.944649c-14.169742-1.889299-25.505535-7.557196-34.95203-15.114391-10.391144-8.501845-17.948339-20.782288-21.726937-33.062731-6.612546-17.00369-6.612546-35.896679-6.612546-35.896679 0-20.782288 8.501845-35.896679 18.892989-45.343173 17.00369-17.00369 42.509225-20.782288 49.121771-20.782288 17.00369-2.833948 40.619926-1.889299 65.180812-0.944649l14.169741 0.944649c7.557196 0 15.114391 0.944649 21.726938 0.94465h19.837638c44.398524 1.889299 48.177122-2.833948 48.177122-2.833949v-0.944649c7.557196-10.391144 18.892989-21.726937 30.228782-32.118081l13.225092-14.169742c-6.612546-11.335793-7.557196-24.560886-4.723247-37.785978 2.833948-18.892989 13.225092-38.730627 24.560886-56.678967 8.501845-12.280443 17.948339-24.560886 25.505535-34.00738 13.225092-15.114391 24.560886-26.450185 29.284133-30.228782 31.173432-38.730627 43.453875-60.457565 48.177121-71.793358l-2.833948 0.94465c-10.391144 2.833948-20.782288 6.612546-27.394834 9.446494l-5.667897 1.889299c-27.394834 19.837638-61.402214 30.228782-72.738007 34.00738l-2.833948 2.833948h-8.501845c-41.564576 6.612546-70.848708 5.667897-89.741698 1.889299-22.671587-5.667897-33.062731-17.948339-34.952029-34.00738-4.723247-31.173432 40.619926-68.01476 55.734317-80.295203v-0.944649l5.667897-3.778598c7.557196-4.723247 20.782288-13.225092 36.841328-21.726937 13.225092-6.612546 27.394834-14.169742 42.509225-21.726938 14.169742-6.612546 28.339483-14.169742 39.675277-18.892989 12.280443-4.723247 21.726937-8.501845 29.284133-10.391143 39.675277-9.446494 74.627306-11.335793 105.800738-8.501845 17.948339 1.889299 34.95203 5.667897 51.01107 10.391143-1.889299-5.667897-2.833948-11.335793-3.778598-17.00369-1.889299-7.557196-2.833948-15.114391-2.833948-23.616236 0-7.557196 0.944649-15.114391 2.833948-23.616236 0.944649-7.557196 2.833948-14.169742 5.667897-21.726937v-0.94465c2.833948-6.612546 6.612546-13.225092 11.335793-19.837638s9.446494-13.225092 15.114391-18.892989c5.667897-4.723247 12.280443-10.391144 18.892989-14.169742 6.612546-4.723247 13.225092-7.557196 19.837639-11.335793 7.557196-2.833948 15.114391-4.723247 22.671586-6.612546s15.114391-1.889299 23.616237-1.889299c15.114391 0 31.173432 2.833948 45.343173 8.501845 7.557196 3.778598 14.169742 6.612546 20.782288 11.335793 6.612546 3.778598 12.280443 9.446494 17.948339 14.169742 11.335793 11.335793 20.782288 24.560886 26.450185 39.675277 2.833948 6.612546 4.723247 14.169742 6.612546 21.726937s2.833948 16.059041 2.833948 23.616236c0 8.501845-0.944649 17.00369-2.833948 24.560886s-3.778598 14.169742-6.612546 21.726937-6.612546 14.169742-11.335794 20.782288-9.446494 13.225092-15.114391 17.948339v0.94465c-5.667897 4.723247-11.335793 9.446494-17.948339 14.169742-6.612546 3.778598-13.225092 7.557196-20.782288 10.391143-7.557196 3.778598-14.169742 5.667897-21.726937 7.557196-6.612546 0.944649-12.280443 1.889299-17.94834 1.889299 4.723247 5.667897 7.557196 10.391144 9.446495 16.059041 2.833948 7.557196 3.778598 14.169742 3.778597 21.726937 0 4.723247 0 9.446494-0.944649 13.225092l-0.944649 4.723247z m-360.856089 50.066421c0-0.944649 1.889299-1.889299 0-0.944649v0.944649z m363.690037 30.228782l-55.734317-74.627306 7.557195-13.225092c0-0.944649 0.944649-2.833948 0.94465-4.723248 0.944649-0.944649 0.944649-2.833948 0.944649-4.723247 0-2.833948 0-4.723247-0.944649-6.612546s-1.889299-4.723247-3.778598-6.612546l-1.889299-2.833948c-7.557196-7.557196-80.295203-94.464945-227.660517-59.512915-4.723247 0.944649-11.335793 3.778598-20.782288 7.557195-10.391144 4.723247-23.616236 11.335793-37.785977 17.94834-15.114391 7.557196-30.228782 16.059041-43.453875 22.671586-12.280443 7.557196-23.616236 13.225092-29.284133 17.94834 0 0-44.398524 32.118081-42.509225 41.564575 0 1.889299 0.944649-2.833948 4.723247-2.833948 8.501845 1.889299 23.616236 0.944649 45.343174-0.944649 6.612546-0.944649 14.169742-1.889299 21.726937-2.833949l0.94465-0.944649h1.889298c1.889299-0.944649 17.00369-5.667897 34.95203-14.169742 10.391144-4.723247 21.726937-10.391144 31.173432-17.00369l2.833948-1.889299h0.944649c3.778598-0.944649 11.335793-4.723247 20.782288-7.557195 5.667897-1.889299 12.280443-3.778598 18.892989-5.667897 12.280443-3.778598 24.560886-5.667897 34.00738-4.723247 14.169742 0.944649 24.560886 7.557196 27.394834 21.726937 1.889299 8.501845 4.723247 45.343173-60.457564 126.583026l-1.889299 1.889299c-3.778598 2.833948-29.284133 29.284133-48.177122 57.623616-8.501845 12.280443-15.114391 25.505535-17.948339 35.896679-1.889299 7.557196-0.944649 14.169742 2.833948 17.948339l19.837638 15.114392-24.560885 25.505535c-16.059041 16.059041-33.062731 34.00738-44.398524 49.121771l-0.94465 0.944649c-2.833948 1.889299-9.446494 8.501845-23.616236 13.225093-12.280443 4.723247-32.118081 8.501845-61.402214 7.557195-11.335793 0.944649-26.450185 0-42.509225-0.944649l-17.94834-0.94465c-20.782288 0-40.619926-0.944649-53.845018 0l-2.833948 0.94465h-1.889299c-2.833948 0-12.280443 0.944649-18.892989 7.557195-2.833948 2.833948-4.723247 6.612546-4.723247 13.225092 0 0 0 10.391144 3.778597 20.782288 1.889299 4.723247 3.778598 9.446494 7.557196 13.225093 2.833948 1.889299 5.667897 3.778598 10.391144 3.778597 23.616236 1.889299 46.287823 3.778598 68.01476 5.667897l68.01476 3.778598 66.125461 3.778598c2.833948 0 36.841328 0 58.568266-30.228783 7.557196-10.391144 15.114391-20.782288 22.671587-32.118081 7.557196-13.225092 16.059041-26.450185 23.616236-40.619926l19.837638-34.00738 20.782288 11.335793c5.667897 3.778598 11.335793 7.557196 16.059041 10.391144 5.667897 2.833948 11.335793 5.667897 16.05904 8.501845l1.889299 0.94465c8.501845 4.723247 16.059041 8.501845 21.726938 10.391144l8.501845 1.889298v3.778598c8.501845 5.667897 22.671587 18.892989 27.394833 47.232473 0.944649 8.501845 0.944649 17.948339 0.94465 29.284132-0.944649 11.335793-2.833948 24.560886-6.612546 38.730628l-0.94465 1.889299c-5.667897 15.114391-17.00369 47.232472-26.450184 75.571955-6.612546 19.837638-11.335793 38.730627-13.225092 48.177122l-0.94465 1.889299v1.889299c-0.944649 0-2.833948 10.391144-3.778598 21.726937 0 6.612546 0 12.280443 0.94465 17.94834 0.944649 0 1.889299-0.944649 3.778598-0.94465l1.889299-0.944649h2.833948c3.778598-0.944649 12.280443-2.833948 23.616236-10.391144 7.557196-5.667897 17.00369-13.225092 26.450185-24.560886s19.837638-25.505535 31.173431-45.343173c3.778598-6.612546 10.391144-18.892989 17.94834-34.00738 8.501845-17.00369 18.892989-38.730627 29.284133-60.457565 6.612546-15.114391 13.225092-30.228782 18.892988-44.398524 5.667897-12.280443 10.391144-23.616236 12.280443-30.228782 0.944649-3.778598 1.889299-23.616236-28.339483-44.398524l-86.907749-59.512915c-2.833948-1.889299-9.446494-7.557196-15.114391-16.059041-3.778598-4.723247-6.612546-11.335793-9.446495-18.892989-1.889299-10.391144-2.833948-21.726937 0-34.952029s9.446494-26.450185 21.726937-42.509225l56.678967-72.738008 18.892989 31.173432c5.667897 8.501845 11.335793 17.948339 16.059041 25.505535 5.667897 8.501845 10.391144 17.00369 15.114391 24.560886 8.501845 13.225092 17.948339 21.726937 27.394834 27.394834 16.059041 11.335793 30.228782 12.280443 32.118081 12.280442h0.94465c31.173432 0.944649 55.734317-0.944649 76.516605-3.778597 22.671587-3.778598 39.675277-9.446494 51.01107-16.059041 9.446494-4.723247 15.114391-9.446494 18.892989-13.225092 1.889299-1.889299 2.833948-3.778598 3.778598-4.723248l-0.94465-0.944649c-3.778598-2.833948-8.501845-4.723247-13.225092-6.612546-5.667897-2.833948-11.335793-4.723247-17.94834-6.612546-30.228782-7.557196-64.236162-11.335793-68.959409-12.280443-14.169742 0-26.450185-2.833948-35.896679-7.557196-17.948339-8.501845-27.394834-20.782288-29.284133-23.616236z m7.557195-324.01476c-3.778598-1.889299-8.501845-3.778598-12.280442-4.723247-4.723247-0.944649-9.446494-0.944649-15.114391-0.94465s-10.391144 0-15.114392 0.94465-9.446494 2.833948-13.225092 4.723247c-4.723247 1.889299-9.446494 4.723247-14.169742 7.557196-3.778598 1.889299-6.612546 4.723247-10.391143 8.501845s-6.612546 7.557196-9.446495 11.335793-4.723247 7.557196-5.667897 11.335793l-0.944649 0.94465c-1.889299 4.723247-2.833948 8.501845-3.778598 13.225092s-0.944649 10.391144-0.944649 15.114391c0 5.667897 0 10.391144 0.944649 15.114391s1.889299 8.501845 3.778598 12.280443l0.944649 1.889299c0.944649 3.778598 2.833948 8.501845 5.667897 12.280443s5.667897 6.612546 9.446495 10.391144c7.557196 7.557196 15.114391 13.225092 24.560885 17.00369 3.778598 1.889299 8.501845 2.833948 13.225092 3.778598s9.446494 1.889299 15.114392 1.889299c4.723247 0 9.446494-0.944649 14.169741-1.889299s9.446494-1.889299 13.225092-3.778598c4.723247-1.889299 9.446494-4.723247 14.169742-7.557196 3.778598-2.833948 6.612546-5.667897 9.446495-8.501845l0.944649-0.944649c3.778598-3.778598 6.612546-6.612546 9.446495-10.391144s4.723247-8.501845 5.667896-12.280443l0.94465-1.889299c1.889299-3.778598 2.833948-7.557196 3.778597-12.280443s1.889299-9.446494 1.889299-15.114391c0-4.723247-0.944649-10.391144-1.889299-15.114391s-1.889299-8.501845-3.778597-13.225092v-0.94465c-1.889299-3.778598-3.778598-7.557196-6.612546-11.335793s-5.667897-7.557196-9.446495-11.335793c-2.833948-3.778598-6.612546-6.612546-10.391144-8.501845-4.723247-2.833948-9.446494-5.667897-14.169742-7.557196z" p-id="5438" fill="#bfbfbf"></path></svg>