<?xml version="1.0" standalone="no"?><!DOCTYPE svg PUBLIC "-//W3C//DTD SVG 1.1//EN" "http://www.w3.org/Graphics/SVG/1.1/DTD/svg11.dtd"><svg t="1681003975241" class="icon" viewBox="0 0 1024 1024" version="1.1" xmlns="http://www.w3.org/2000/svg" p-id="6200" xmlns:xlink="http://www.w3.org/1999/xlink" width="24" height="24"><path d="M117.333333 938.666667c-17.066667 0-32-14.933333-32-32v-277.333334c0-17.066667 14.933333-32 32-32s32 14.933333 32 32v277.333334c0 17.066667-12.8 32-32 32zM379.733333 938.666667c-17.066667 0-32-14.933333-32-32v-448c0-17.066667 14.933333-32 32-32s32 14.933333 32 32v448c0 17.066667-12.8 32-32 32zM644.266667 938.666667c-17.066667 0-32-14.933333-32-32v-618.666667c0-17.066667 14.933333-32 32-32s32 14.933333 32 32v618.666667c0 17.066667-14.933333 32-32 32zM906.666667 938.666667c-17.066667 0-32-14.933333-32-32v-789.333334c0-17.066667 14.933333-32 32-32s32 14.933333 32 32v789.333334c0 17.066667-14.933333 32-32 32z" fill="#1afa29" p-id="6201"></path></svg>